HIERARCHY
ROOT Hips
{
 OFFSET 0.000000 0.000000 0.000000
 CHANNELS 6 Xposition Yposition Zposition Yrotation Xrotation Zrotation
 JOINT Chest
 {
  OFFSET 0.000000 9.585900 0.002600
  CHANNELS 3 Yrotation Xrotation Zrotation
  JOINT Chest2
  {
   OFFSET 0.000000 9.601200 -0.005300
   CHANNELS 3 Yrotation Xrotation Zrotation
   JOINT Chest3
   {
    OFFSET 0.000000 9.561800 0.000000
    CHANNELS 3 Yrotation Xrotation Zrotation
    JOINT Chest4
    {
     OFFSET 0.000000 9.552100 0.000000
     CHANNELS 3 Yrotation Xrotation Zrotation
     JOINT Neck
     {
      OFFSET 0.000000 14.453000 0.000000
      CHANNELS 3 Yrotation Xrotation Zrotation
      JOINT Head
      {
       OFFSET 0.000000 8.936500 -0.011300
       CHANNELS 3 Yrotation Xrotation Zrotation
       End Site
       {
        OFFSET 0.000000 17.073600 -0.006000
       }
      }
     }
     JOINT RightCollar
     {
      OFFSET -2.921100 9.558500 0.000000
      CHANNELS 3 Yrotation Xrotation Zrotation
      JOINT RightShoulder
      {
       OFFSET -13.519700 0.000000 0.000000
       CHANNELS 3 Yrotation Xrotation Zrotation
       JOINT RightElbow
       {
        OFFSET 0.000000 -29.696600 0.000000
        CHANNELS 3 Yrotation Xrotation Zrotation
        JOINT RightWrist
        {
         OFFSET 0.000000 -24.004700 0.000000
         CHANNELS 3 Yrotation Xrotation Zrotation
         End Site
         {
          OFFSET 0.000000 -17.728500 0.000000
         }
        }
       }
      }
     }
     JOINT LeftCollar
     {
      OFFSET 2.921100 9.558500 0.000000
      CHANNELS 3 Yrotation Xrotation Zrotation
      JOINT LeftShoulder
      {
       OFFSET 13.519700 0.000000 0.000000
       CHANNELS 3 Yrotation Xrotation Zrotation
       JOINT LeftElbow
       {
        OFFSET 0.000000 -29.696600 0.000000
        CHANNELS 3 Yrotation Xrotation Zrotation
        JOINT LeftWrist
        {
         OFFSET 0.000000 -24.004700 0.000000
         CHANNELS 3 Yrotation Xrotation Zrotation
         End Site
         {
          OFFSET 0.000000 -17.728500 0.000000
         }
        }
       }
      }
     }
    }
   }
  }
 }
 JOINT RightHip
 {
  OFFSET -7.771700 -0.012900 -0.001300
  CHANNELS 3 Yrotation Xrotation Zrotation
  JOINT RightKnee
  {
   OFFSET 0.000000 -40.869800 0.001200
   CHANNELS 3 Yrotation Xrotation Zrotation
   JOINT RightAnkle
   {
    OFFSET 0.000000 -39.717900 0.002100
    CHANNELS 3 Yrotation Xrotation Zrotation
    JOINT RightToe
    {
     OFFSET 0.000000 -4.965400 11.033500
     CHANNELS 3 Yrotation Xrotation Zrotation
     End Site
     {
      OFFSET 0.000000 -1.423100 5.872300
     }
    }
   }
  }
 }
 JOINT LeftHip
 {
  OFFSET 7.771700 -0.012900 -0.001300
  CHANNELS 3 Yrotation Xrotation Zrotation
  JOINT LeftKnee
  {
   OFFSET 0.000000 -40.869800 0.001200
   CHANNELS 3 Yrotation Xrotation Zrotation
   JOINT LeftAnkle
   {
    OFFSET 0.000000 -39.717900 0.002100
    CHANNELS 3 Yrotation Xrotation Zrotation
    JOINT LeftToe
    {
     OFFSET 0.000000 -4.965400 11.033500
     CHANNELS 3 Yrotation Xrotation Zrotation
     End Site
     {
      OFFSET 0.000000 -1.423100 5.872300
     }
    }
   }
  }
 }
}
MOTION
Frames: 16
Frame Time: 0.008333
-26.300663 54.470868 39.224906 -178.678854 -31.480604 -11.553884 -1.449132 13.061888 5.391071 -0.805821 7.610362 1.770784 -0.972283 9.516465 2.201451 -0.805843 7.610384 1.770815 3.662756 21.301876 -0.471404 4.043957 -2.957523 -1.344627 2.909845 1.040028 -4.033448 -11.442654 -12.582409 4.530012 -8.813840 -75.373026 26.755833 8.155406 -2.444211 -14.097038 -7.544207 3.765228 -3.258623 6.595181 -2.040329 -0.337466 -79.290160 -72.190462 84.750250 13.580478 -20.738685 0.837491 -17.238796 -35.055938 5.336887 36.696910 84.019716 31.818794 -0.825416 -17.108149 3.392513 -1.188377 2.216729 -0.558368 -16.783226 -46.484119 16.342545 171.243297 79.848006 165.908603 -1.406307 -15.858174 2.116671 -0.720286 -1.814999 -0.329529
-26.302320 54.491706 39.237801 -178.691986 -31.536769 -11.568082 -1.462144 13.032729 5.357324 -0.789605 7.648026 1.788392 -0.992056 9.454384 2.171417 -0.806505 7.599930 1.764019 3.475001 21.459234 -0.381561 3.821186 -2.785166 -1.204959 2.946117 1.005891 -3.963273 -11.284633 -13.718103 4.287171 -7.069093 -75.888290 25.375814 8.372138 -1.721388 -14.570272 -7.596573 3.816193 -3.248547 6.667798 -2.002009 -0.353071 -79.686509 -71.972149 85.179180 13.663326 -20.886857 0.896876 -17.237561 -35.003755 5.341787 36.680326 84.000864 31.795795 -0.831993 -17.091368 3.392633 -1.185104 2.219733 -0.552415 -16.797147 -46.433479 16.354230 171.217746 79.850435 165.925517 -1.674997 -15.820559 2.179192 -0.760216 -1.836313 -0.353746
-26.292442 54.509864 39.256617 -178.775959 -31.567187 -11.614151 -1.383844 13.009727 5.422977 -0.812635 7.572503 1.749793 -0.979097 9.464798 2.177566 -0.804318 7.588262 1.759788 3.271483 21.626590 -0.294805 3.582384 -2.600713 -1.064974 2.986027 0.952389 -3.897075 -11.133200 -14.936991 4.000673 -5.346763 -76.335936 24.060124 8.548128 -1.155094 -15.042494 -7.654191 3.867320 -3.240338 6.730723 -1.988580 -0.379813 -80.035640 -71.774288 85.561674 13.755296 -21.027378 0.955274 -17.282087 -34.965443 5.441208 36.502414 83.959319 31.616880 -0.781902 -17.050500 3.356653 -1.185429 2.229459 -0.562822 -16.838525 -46.400827 16.472572 171.183896 79.842428 165.941157 -1.890949 -15.803045 2.227062 -0.816520 -1.845176 -0.386142
-26.280821 54.533421 39.264412 -178.821452 -31.662731 -11.690722 -1.344146 13.006330 5.460645 -0.806100 7.557591 1.746160 -0.963118 9.473918 2.184578 -0.798211 7.576393 1.757090 3.055247 21.801342 -0.207563 3.330010 -2.407002 -0.921508 3.040310 0.869593 -3.837421 -10.968076 -16.222040 3.685057 -3.824093 -76.701344 22.940380 8.665118 -0.777830 -15.477260 -7.714065 3.910062 -3.229101 6.773088 -1.994051 -0.415012 -80.337032 -71.610300 85.899073 13.847593 -21.151241 0.989830 -17.293728 -34.851049 5.522940 36.316556 83.930878 31.445479 -0.765474 -17.003995 3.329633 -1.170956 2.215844 -0.559795 -16.885576 -46.298481 16.558722 171.083216 79.819170 165.882127 -1.985857 -15.777593 2.227251 -0.826953 -1.876786 -0.405994
-26.275456 54.550417 39.277071 -178.848223 -31.702149 -11.734721 -1.334225 12.956574 5.456896 -0.787681 7.564468 1.754867 -0.950123 9.458990 2.181970 -0.787723 7.564460 1.754858 2.829960 21.984462 -0.113360 3.066645 -2.202554 -0.768567 3.110381 0.759579 -3.783111 -10.756537 -17.553322 3.352475 -2.495184 -76.994692 21.949852 8.756117 -0.584967 -15.913481 -7.751450 3.985990 -3.204113 6.761280 -2.052306 -0.465860 -80.591877 -71.482133 86.193142 13.933706 -21.245753 0.983830 -17.318065 -34.806409 5.570032 36.220983 83.911565 31.364019 -0.756766 -16.976374 3.304602 -1.148027 2.216667 -0.553564 -16.935337 -46.269313 16.607452 170.925051 79.794462 165.740130 -2.003032 -15.738292 2.231723 -0.825389 -1.911475 -0.434664
-26.269549 54.568754 39.284007 -178.851555 -31.760214 -11.788991 -1.325750 12.948252 5.464208 -0.773548 7.552311 1.752627 -0.932488 9.443806 2.179395 -0.773588 7.552326 1.752559 2.599712 22.180013 -0.008793 2.795921 -1.982133 -0.603487 3.198911 0.627558 -3.732961 -10.469700 -18.905844 3.007253 -1.199318 -77.249828 20.879898 8.847754 -0.510348 -16.386272 -7.800417 4.061975 -3.170812 6.734778 -2.124315 -0.524466 -80.807275 -71.380127 86.447020 14.016583 -21.305145 0.927033 -17.429952 -34.718097 5.630967 36.358405 83.866180 31.449973 -0.708746 -16.988342 3.296031 -1.172277 2.248000 -0.578948 -16.982641 -46.210384 16.626356 170.775635 79.776696 165.629497 -2.005638 -15.731430 2.194888 -0.856956 -1.921510 -0.436297
-26.260525 54.587634 39.287122 -178.866558 -31.827838 -11.847379 -1.297215 12.947722 5.484755 -0.756315 7.540330 1.750418 -0.925432 9.475415 2.200076 -0.743549 7.494042 1.725219 2.366687 22.393348 0.105033 2.520333 -1.739137 -0.427769 3.309223 0.477664 -3.692531 -10.095191 -20.262825 2.653307 0.268859 -77.490523 19.490639 8.927135 -0.470869 -16.885556 -7.872415 4.096345 -3.138114 6.712707 -2.168728 -0.579673 -81.002753 -71.290554 86.676895 14.099568 -21.334511 0.814914 -17.496226 -34.623730 5.691465 36.388817 83.832670 31.458992 -0.679099 -16.986669 3.278265 -1.236124 2.264421 -0.581687 -17.009572 -46.130130 16.663464 170.730960 79.767609 165.627312 -2.015756 -15.759633 2.149565 -0.843328 -1.904947 -0.423178
-26.247863 54.605033 39.289485 -178.897017 -31.882060 -11.906954 -1.249672 12.934430 5.519998 -0.736256 7.528028 1.748278 -0.894806 9.436289 2.186447 -0.728312 7.505340 1.735269 2.132624 22.630677 0.228569 2.241603 -1.465808 -0.241154 3.439991 0.314948 -3.669366 -9.634872 -21.616796 2.296734 2.003977 -77.712074 17.672896 8.968736 -0.399147 -17.389323 -7.950552 4.126006 -3.104884 6.680508 -2.221775 -0.635549 -81.187241 -71.193750 86.890716 14.186506 -21.346128 0.650172 -17.564103 -34.544258 5.759306 36.361014 83.803541 31.429714 -0.637560 -16.980178 3.237919 -1.280907 2.278626 -0.580913 -17.065740 -46.076181 16.719140 170.601958 79.734201 165.535545 -1.955656 -15.744988 2.094612 -0.881616 -1.937247 -0.428432
-26.234490 54.621897 39.288216 -178.920715 -31.937117 -11.958035 -1.205557 12.955399 5.564743 -0.712321 7.486991 1.728401 -0.858265 9.396506 2.172537 -0.714106 7.514713 1.746087 1.902146 22.891232 0.365671 1.963779 -1.162487 -0.040645 3.591170 0.140840 -3.666814 -9.097408 -22.961776 1.937664 3.854118 -77.891126 15.590938 8.975199 -0.278377 -17.844118 -8.042248 4.101885 -3.099292 6.650905 -2.235473 -0.655720 -81.352771 -71.076921 87.081020 14.280047 -21.344826 0.443987 -17.642708 -34.465763 5.819406 36.356513 83.783062 31.424726 -0.640471 -16.975172 3.227503 -1.236393 2.289890 -0.607476 -17.111743 -46.023469 16.754964 170.474658 79.698323 165.450771 -1.897811 -15.729946 2.045331 -0.908354 -1.972831 -0.441947
-26.213793 54.639628 39.283436 -178.961189 -32.001339 -12.024989 -1.133776 12.945105 5.611221 -0.688266 7.486966 1.734708 -0.827493 9.378671 2.170149 -0.689428 7.500583 1.743725 1.677454 23.166127 0.519611 1.688341 -0.839405 0.176915 3.766860 -0.046867 -3.685796 -8.513599 -24.293126 1.582174 5.536293 -78.004391 13.556286 8.956585 -0.159607 -18.166482 -8.121428 4.111314 -3.087786 6.600395 -2.288600 -0.675604 -81.504022 -70.945283 87.248103 14.369399 -21.325057 0.224697 -17.672218 -34.387618 5.870459 36.286447 83.779352 31.432835 -0.635587 -16.938079 3.116589 -1.144715 2.267005 -0.565644 -17.188033 -45.969421 16.817642 170.273169 79.634594 165.299772 -1.791283 -15.676072 1.984011 -0.986553 -2.060278 -0.465873
-26.196308 54.653690 39.278400 -178.988318 -32.040066 -12.056348 -1.083108 12.916890 5.616602 -0.661013 7.484998 1.740698 -0.792131 9.359123 2.166882 -0.661045 7.485077 1.740649 1.454370 23.448705 0.690500 1.410604 -0.504276 0.412778 3.969193 -0.254473 -3.725358 -7.936314 -25.600719 1.249957 6.879548 -78.041621 11.784904 8.907411 -0.101185 -18.340237 -8.201109 4.135765 -3.063844 6.544943 -2.363032 -0.694959 -81.639384 -70.805643 87.382329 14.433737 -21.285796 0.029106 -17.693029 -34.340283 5.901702 36.369086 83.773967 31.545745 -0.623321 -16.935027 3.065083 -1.121694 2.265092 -0.559164 -17.219506 -45.943174 16.828294 170.127684 79.589707 165.207514 -1.714444 -15.650456 1.930330 -1.022219 -2.108851 -0.488845
-26.175903 54.665688 39.273193 -179.022771 -32.062582 -12.077467 -1.023433 12.892757 5.628818 -0.628196 7.467546 1.736598 -0.751199 9.337142 2.162413 -0.628223 7.467612 1.736566 1.228193 23.733690 0.874688 1.126109 -0.163185 0.664130 4.189888 -0.486684 -3.783320 -7.400966 -26.876038 0.954224 7.855522 -78.017472 10.342830 8.848479 -0.092519 -18.420281 -8.284207 4.158889 -3.031670 6.477646 -2.445123 -0.705915 -81.746886 -70.654564 87.474732 14.463493 -21.236758 -0.118564 -17.755914 -34.307768 5.956962 36.569751 83.763874 31.741967 -0.613576 -16.938397 3.019978 -1.112665 2.271177 -0.554877 -17.227710 -45.931194 16.835428 170.020889 79.552665 165.158431 -1.646569 -15.648511 1.892716 -1.051246 -2.133695 -0.523156
-26.153460 54.675693 39.267890 -179.064486 -32.070079 -12.083566 -0.950748 12.861025 5.635333 -0.591277 7.450021 1.732591 -0.705050 9.315061 2.158134 -0.591272 7.450050 1.732517 0.998495 24.011337 1.065014 0.835896 0.172086 0.923437 4.420375 -0.739995 -3.860170 -6.921137 -28.120359 0.694598 8.548135 -77.953546 9.162883 8.811148 -0.105315 -18.450273 -8.370782 4.176845 -2.995283 6.387461 -2.535055 -0.707964 -81.835268 -70.484097 87.544133 14.466110 -21.188450 -0.204104 -17.758159 -34.301167 6.000483 36.616345 83.771745 31.801375 -0.601472 -16.941024 3.002062 -1.113376 2.272787 -0.554820 -17.221895 -45.938635 16.834856 169.909774 79.515275 165.107169 -1.580826 -15.647264 1.846965 -1.082613 -2.159365 -0.540131
-26.129121 54.684061 39.262581 -179.103992 -32.062516 -12.081175 -0.896927 12.832927 5.644913 -0.571954 7.441619 1.730804 -0.618495 9.281165 2.134779 -0.552359 7.434546 1.729166 0.769818 24.273137 1.254088 0.546545 0.491056 1.181587 4.656348 -1.003906 -3.954530 -6.500637 -29.341127 0.467959 9.088230 -77.851016 8.136944 8.788358 -0.137838 -18.463865 -8.453232 4.186015 -2.960331 6.270539 -2.631908 -0.699938 -81.916219 -70.293890 87.611986 14.451766 -21.146769 -0.235393 -17.748090 -34.311093 6.032989 36.646690 83.781740 31.859302 -0.600093 -16.954462 2.985512 -1.124007 2.283159 -0.557911 -17.214616 -45.963917 16.832742 169.801750 79.478016 165.052177 -1.510651 -15.642939 1.812380 -1.132739 -2.190861 -0.550385
-26.098538 54.691038 39.259342 -179.177472 -32.036792 -12.081308 -0.811547 12.783036 5.677015 -0.485683 7.415173 1.707489 -0.587657 9.272325 2.140959 -0.513148 7.420768 1.725512 0.547280 24.517650 1.439875 0.264085 0.791910 1.435229 4.886936 -1.263851 -4.057182 -6.135186 -30.546160 0.268389 9.505004 -77.710326 7.269926 8.765360 -0.185979 -18.510034 -8.528115 4.193316 -2.924227 6.135225 -2.737477 -0.684544 -81.986474 -70.091734 87.678935 14.430024 -21.117273 -0.237175 -17.739515 -34.338054 6.101991 36.760753 83.790699 32.011326 -0.606869 -16.986542 2.955876 -1.137290 2.312502 -0.559188 -17.208171 -46.007698 16.878544 169.721442 79.443346 165.012547 -1.394505 -15.621172 1.802809 -1.233019 -2.235858 -0.594637
-26.072754 54.699834 39.249594 -179.157857 -32.025833 -12.089402 -0.736729 12.746675 5.652012 -0.456676 7.404852 1.714458 -0.557175 9.260389 2.145327 -0.472923 7.406730 1.720364 0.333077 24.747264 1.626087 -0.010020 1.077350 1.688017 5.100552 -1.507548 -4.157555 -5.828958 -31.741033 0.090037 9.797720 -77.531402 6.588341 8.731917 -0.261977 -18.617258 -8.602301 4.210486 -2.882547 5.993905 -2.852978 -0.663880 -82.041829 -69.889429 87.734704 14.410326 -21.104386 -0.229057 -17.772460 -34.343143 6.100061 37.014924 83.785866 32.319641 -0.672837 -16.982329 2.876935 -1.060999 2.301989 -0.523206 -17.222823 -46.028256 16.842877 169.655606 79.410223 165.012562 -1.366921 -15.647733 1.745133 -1.233019 -2.234320 -0.593718
